<svg width="165" height="42" viewBox="0 0 165 42" fill="none" xmlns="http://www.w3.org/2000/svg">
<g clip-path="url(#clip0_3537_238)">
<path d="M43.2455 38.4993L39.5254 40.0178V19.1728L26.4045 25.5919V32.4252L37.2278 26.6135L37.2278 30.7135L22.5531 37.7401V23.3141L43.2455 12.8978V38.4993Z" fill="white"/>
<path d="M20.1651 20.3928L0.999878 9.0246L5.17726 6.48619L12.0478 10.2135L27.9668 1L32.3766 3.50769L16.2465 12.8226L24.6438 17.668L20.1651 20.3928Z" fill="white"/>
<path d="M2.9068 27.5636L2.39478 15.6171L17.5611 24.4005V36.8285L2.9068 27.5636Z" stroke="white" stroke-width="5"/>
<path d="M57.647 31.2236V12.6734H54.2455V9.68493H65.3374V12.6734H61.9359V31.2236H57.647ZM75.0066 31.6609C73.7988 31.6609 72.7389 31.5151 71.8269 31.2236C70.9149 30.9563 70.2001 30.3854 69.6825 29.5107C69.1895 28.6117 68.943 27.2876 68.943 25.5382V14.2405C68.943 12.9528 69.1895 11.9566 69.6825 11.252C70.2001 10.5474 70.9149 10.0615 71.8269 9.79426C72.7635 9.5027 73.8358 9.35693 75.0435 9.35693C76.2267 9.35693 77.2743 9.5027 78.1863 9.79426C79.1229 10.0858 79.85 10.5839 80.3677 11.2885C80.9099 11.9931 81.1811 12.9771 81.1811 14.2405V25.5018C81.1811 27.2754 80.9099 28.6117 80.3677 29.5107C79.85 30.3854 79.1229 30.9563 78.1863 31.2236C77.2743 31.5151 76.2144 31.6609 75.0066 31.6609ZM75.0066 29.1827C75.3763 29.1827 75.6967 29.1219 75.9679 29.0005C76.2637 28.879 76.4855 28.6725 76.6334 28.3809C76.8059 28.0651 76.8922 27.6399 76.8922 27.1054V14.0583C76.8922 13.5237 76.8059 13.1107 76.6334 12.8191C76.4855 12.5033 76.2637 12.2846 75.9679 12.1631C75.6967 12.0417 75.3763 11.9809 75.0066 11.9809C74.6369 11.9809 74.3164 12.0417 74.0453 12.1631C73.7741 12.2846 73.5523 12.5033 73.3798 12.8191C73.2319 13.1107 73.1579 13.5237 73.1579 14.0583V27.1054C73.1579 27.6399 73.2319 28.0651 73.3798 28.3809C73.5523 28.6725 73.7741 28.879 74.0453 29.0005C74.3164 29.1219 74.6369 29.1827 75.0066 29.1827ZM86.2599 31.2236V9.68493H94.0242C95.4785 9.68493 96.5754 10.0129 97.3148 10.6689C98.0789 11.3006 98.461 12.1874 98.461 13.3294V17.0467C98.461 18.0185 98.3378 18.9297 98.0913 19.78C97.8448 20.6061 97.4011 21.2742 96.7602 21.7845C96.1194 22.2947 95.1951 22.5498 93.9873 22.5498H90.7336V31.2236H86.2599ZM90.7336 20.2174H92.3974C92.989 20.2174 93.4327 19.9379 93.7285 19.3791C94.0242 18.8203 94.1721 17.8971 94.1721 16.6094V15.1516C94.1721 14.0097 94.0489 13.1957 93.8024 12.7098C93.5559 12.2239 93.1985 11.9809 92.7302 11.9809H90.7336V20.2174ZM105.507 31.2236L101.921 9.68493H106.358L108.576 26.7409L110.868 9.68493H115.157L111.534 31.2236H105.507ZM119.401 31.2236V9.68493H123.69V31.2236H119.401ZM127.986 31.2236V28.5267L132.941 12.6734H128.356V9.68493H137.858V11.7987L132.608 28.2351H137.858V31.2236H127.986ZM142.108 31.2236V9.68493H146.397V31.2236H142.108ZM157.533 31.6609C156.325 31.6609 155.265 31.5151 154.353 31.2236C153.441 30.9563 152.726 30.3854 152.209 29.5107C151.716 28.6117 151.469 27.2876 151.469 25.5382V14.2405C151.469 12.9528 151.716 11.9566 152.209 11.252C152.726 10.5474 153.441 10.0615 154.353 9.79426C155.29 9.5027 156.362 9.35693 157.57 9.35693C158.753 9.35693 159.8 9.5027 160.712 9.79426C161.649 10.0858 162.376 10.5839 162.894 11.2885C163.436 11.9931 163.707 12.9771 163.707 14.2405V25.5018C163.707 27.2754 163.436 28.6117 162.894 29.5107C162.376 30.3854 161.649 30.9563 160.712 31.2236C159.8 31.5151 158.74 31.6609 157.533 31.6609ZM157.533 29.1827C157.902 29.1827 158.223 29.1219 158.494 29.0005C158.79 28.879 159.012 28.6725 159.16 28.3809C159.332 28.0651 159.418 27.6399 159.418 27.1054V14.0583C159.418 13.5237 159.332 13.1107 159.16 12.8191C159.012 12.5033 158.79 12.2846 158.494 12.1631C158.223 12.0417 157.902 11.9809 157.533 11.9809C157.163 11.9809 156.843 12.0417 156.571 12.1631C156.3 12.2846 156.078 12.5033 155.906 12.8191C155.758 13.1107 155.684 13.5237 155.684 14.0583V27.1054C155.684 27.6399 155.758 28.0651 155.906 28.3809C156.078 28.6725 156.3 28.879 156.571 29.0005C156.843 29.1219 157.163 29.1827 157.533 29.1827Z" fill="white"/>
</g>
<defs>
<clipPath id="clip0_3537_238">
<rect width="164.707" height="41.0178" fill="white"/>
</clipPath>
</defs>
</svg>
