<svg width="30" height="30" viewBox="0 0 30 30" fill="none" xmlns="http://www.w3.org/2000/svg">
<g clip-path="url(#clip0_3487_97)">
<path d="M15.0342 0H14.9658C6.70044 0 0 6.70241 0 14.9703V15.0386C0 23.3064 6.70044 30.0088 14.9658 30.0088H15.0342C23.2996 30.0088 30 23.3064 30 15.0386V14.9703C30 6.70241 23.2996 0 15.0342 0Z" fill="white"/>
<path d="M13.8392 15.5678C13.5785 15.2409 13.28 14.9907 12.9458 14.8214C13.2411 14.6416 13.4955 14.4208 13.7057 14.158C14.0599 13.7143 14.2396 13.1581 14.2396 12.5042C14.2396 11.9585 14.0956 11.4571 13.8108 11.0144C13.527 10.5718 13.1045 10.2164 12.5548 9.95781C12.0167 9.70444 11.3682 9.57617 10.6293 9.57617H6.42615V20.4335H10.8227C11.5426 20.4335 12.1859 20.3021 12.7335 20.0435C13.2916 19.7806 13.7267 19.4127 14.0252 18.9511C14.3248 18.4875 14.4772 17.9607 14.4772 17.3856C14.4772 16.7117 14.2627 16.1009 13.8392 15.5689V15.5678ZM11.6068 13.5892C11.3471 13.7995 10.9677 13.9067 10.4811 13.9067H8.66277V11.5012H10.4811C10.9656 11.5012 11.3429 11.6116 11.6025 11.8303C11.8516 12.0395 11.9725 12.3286 11.9725 12.7113C11.9725 13.094 11.8527 13.3905 11.6068 13.5892ZM8.66277 15.8328H10.6146C11.1254 15.8328 11.5185 15.9568 11.8159 16.2123C12.1007 16.4573 12.2395 16.7822 12.2395 17.2069C12.2395 17.6317 12.1113 17.9313 11.8464 18.1552C11.5721 18.3876 11.1779 18.5053 10.6734 18.5053H8.66277V15.8328Z" fill="black"/>
<path d="M23.0642 13.7525C22.7257 13.1406 22.2465 12.658 21.639 12.3195C21.0325 11.981 20.3315 11.8096 19.5579 11.8096C18.7843 11.8096 18.0307 11.9862 17.4096 12.3342C16.7873 12.6832 16.2975 13.1847 15.9549 13.8271C15.6123 14.4685 15.4388 15.2212 15.4388 16.0644C15.4388 16.9076 15.6175 17.6614 15.9707 18.3017C16.3238 18.943 16.8178 19.4477 17.44 19.8009C18.0612 20.1542 18.7738 20.3329 19.5589 20.3329C20.5228 20.3329 21.3415 20.0879 21.9932 19.6054C22.6448 19.1228 23.101 18.4941 23.3501 17.7382L23.3679 17.6845H21.4613L21.4498 17.7077C21.083 18.451 20.4471 18.8274 19.5579 18.8274C18.9388 18.8274 18.4091 18.6308 17.9834 18.2449C17.5683 17.8675 17.3297 17.3628 17.274 16.7436H23.5088L23.514 16.7089C23.554 16.4597 23.5739 16.178 23.5739 15.872C23.5739 15.0772 23.4026 14.3644 23.0642 13.7525ZM18.0129 13.8618C18.4186 13.4991 18.9136 13.3162 19.4833 13.3162C20.1128 13.3162 20.6478 13.5023 21.0735 13.8702C21.4876 14.2277 21.7073 14.7082 21.7262 15.2969H17.2918C17.3759 14.6987 17.6187 14.2161 18.0139 13.8629L18.0129 13.8618Z" fill="black"/>
<path d="M21.5822 9.82617H17.4296V10.8102H21.5822V9.82617Z" fill="black"/>
</g>
<defs>
<clipPath id="clip0_3487_97">
<rect width="30" height="30.0088" fill="white"/>
</clipPath>
</defs>
</svg>
