<svg width="30" height="30" viewBox="0 0 30 30" fill="none" xmlns="http://www.w3.org/2000/svg">
<g clip-path="url(#clip0_3486_87)">
<path d="M29.9979 15.0054C29.9979 22.5833 24.3824 28.8481 17.0873 29.8647C16.4052 29.9593 15.7073 30.0088 14.9989 30.0088C14.1813 30.0088 13.3783 29.9436 12.5963 29.8174C5.45474 28.6673 0 22.4729 0 15.0054C0 6.7189 6.71595 0.000976562 15 0.000976562C23.2841 0.000976562 30 6.7189 30 15.0054H29.9979Z" fill="white"/>
<path d="M17.0873 12.0492V15.3177H21.1295L20.4894 19.7207H17.0873V29.8648C16.4052 29.9595 15.7073 30.0089 14.9989 30.0089C14.1813 30.0089 13.3783 29.9437 12.5963 29.8175V19.7207H8.86841V15.3177H12.5963V11.3185C12.5963 8.83742 14.6069 6.8252 17.0884 6.8252V6.8273C17.0957 6.8273 17.102 6.8252 17.1094 6.8252H21.1305V10.6331H18.503C17.7221 10.6331 17.0884 11.267 17.0884 12.0482L17.0873 12.0492Z" fill="black"/>
</g>
<defs>
<clipPath id="clip0_3486_87">
<rect width="30" height="30.0078" fill="white" transform="translate(0 0.000976562)"/>
</clipPath>
</defs>
</svg>
