<svg width="30" height="30" viewBox="0 0 30 30" fill="none" xmlns="http://www.w3.org/2000/svg">
<g clip-path="url(#clip0_3486_80)">
<path d="M15.0342 0H14.9658C6.70044 0 0 6.70241 0 14.9703V15.0386C0 23.3064 6.70044 30.0088 14.9658 30.0088H15.0342C23.2996 30.0088 30 23.3064 30 15.0386V14.9703C30 6.70241 23.2996 0 15.0342 0Z" fill="white"/>
<path d="M19.642 6.10449H10.3591C7.79458 6.10449 5.70825 8.19143 5.70825 10.7567V19.2517C5.70825 21.817 7.79458 23.9039 10.3591 23.9039H19.642C22.2065 23.9039 24.2928 21.817 24.2928 19.2517V10.7567C24.2928 8.19143 22.2065 6.10449 19.642 6.10449ZM7.34894 10.7567C7.34894 9.09665 8.69953 7.74566 10.3591 7.74566H19.642C21.3016 7.74566 22.6522 9.09665 22.6522 10.7567V19.2517C22.6522 20.9118 21.3016 22.2628 19.642 22.2628H10.3591C8.69953 22.2628 7.34894 20.9118 7.34894 19.2517V10.7567Z" fill="black"/>
<path d="M15.0005 19.3305C17.3854 19.3305 19.3266 17.3897 19.3266 15.0032C19.3266 12.6166 17.3864 10.6758 15.0005 10.6758C12.6147 10.6758 10.6744 12.6166 10.6744 15.0032C10.6744 17.3897 12.6147 19.3305 15.0005 19.3305ZM15.0005 12.318C16.4815 12.318 17.686 13.5228 17.686 15.0042C17.686 16.4856 16.4815 17.6904 15.0005 17.6904C13.5196 17.6904 12.3151 16.4856 12.3151 15.0042C12.3151 13.5228 13.5196 12.318 15.0005 12.318Z" fill="black"/>
<path d="M19.7271 11.3749C20.3693 11.3749 20.8927 10.8524 20.8927 10.2089C20.8927 9.5655 20.3704 9.04297 19.7271 9.04297C19.0839 9.04297 18.5615 9.5655 18.5615 10.2089C18.5615 10.8524 19.0839 11.3749 19.7271 11.3749Z" fill="black"/>
</g>
<defs>
<clipPath id="clip0_3486_80">
<rect width="30" height="30.0088" fill="white"/>
</clipPath>
</defs>
</svg>
