<svg width="30" height="30" viewBox="0 0 30 30" fill="none" xmlns="http://www.w3.org/2000/svg">
<g clip-path="url(#clip0_3486_91)">
<path d="M15.0342 0H14.9658C6.70045 0 0 6.70241 0 14.9702V15.0386C0 23.3064 6.70045 30.0088 14.9658 30.0088H15.0342C23.2996 30.0088 30 23.3064 30 15.0386V14.9702C30 6.70241 23.2996 0 15.0342 0Z" fill="white"/>
<path d="M7.15447 9.97365C6.75928 9.60673 6.56274 9.15255 6.56274 8.61215C6.56274 8.07176 6.76033 7.59759 7.15447 7.22962C7.54966 6.8627 8.05837 6.67871 8.68164 6.67871C9.30491 6.67871 9.79366 6.8627 10.1878 7.22962C10.583 7.59654 10.7795 8.05809 10.7795 8.61215C10.7795 9.16622 10.5819 9.60673 10.1878 9.97365C9.7926 10.3406 9.29125 10.5246 8.68164 10.5246C8.07204 10.5246 7.54966 10.3406 7.15447 9.97365ZM10.4474 12.0785V23.328H6.89381V12.0785H10.4474Z" fill="black"/>
<path d="M22.2768 13.1894C23.0515 14.0304 23.4383 15.1848 23.4383 16.6546V23.1289H20.0634V17.1109C20.0634 16.3697 19.871 15.7936 19.4874 15.3835C19.1038 14.9735 18.5866 14.7674 17.9392 14.7674C17.2918 14.7674 16.7746 14.9725 16.391 15.3835C16.0074 15.7936 15.815 16.3697 15.815 17.1109V23.1289H12.4202V12.0465H15.815V13.5163C16.1587 13.0264 16.6222 12.6395 17.2045 12.3546C17.7868 12.0697 18.4416 11.9277 19.17 11.9277C20.467 11.9277 21.5033 12.3483 22.2768 13.1883V13.1894Z" fill="black"/>
</g>
<defs>
<clipPath id="clip0_3486_91">
<rect width="30" height="30.0088" fill="white"/>
</clipPath>
</defs>
</svg>
