<svg width="30" height="30" viewBox="0 0 30 30" fill="none" xmlns="http://www.w3.org/2000/svg">
<g clip-path="url(#clip0_3487_104)">
<path d="M15.0342 0H14.9658C6.70044 0 0 6.70241 0 14.9702V15.0386C0 23.3064 6.70044 30.0088 14.9658 30.0088H15.0342C23.2996 30.0088 30 23.3064 30 15.0386V14.9702C30 6.70241 23.2996 0 15.0342 0Z" fill="white"/>
<path d="M17.9235 19.3936C14.084 19.3936 10.9603 16.2679 10.9592 12.4273C10.9603 11.4538 11.7528 10.6621 12.7239 10.6621C12.8238 10.6621 12.9226 10.6705 13.0172 10.6873C13.2253 10.722 13.4229 10.7925 13.6047 10.8987C13.631 10.9144 13.6489 10.9397 13.6531 10.9691L14.0588 13.5271C14.064 13.5565 14.0546 13.587 14.0346 13.6091C13.8107 13.8572 13.5248 14.0359 13.2064 14.1253L13.0529 14.1684L13.1107 14.3166C13.6341 15.6497 14.6999 16.7148 16.0337 17.2404L16.1819 17.2993L16.225 17.1458C16.3143 16.8273 16.493 16.5413 16.741 16.3174C16.7589 16.3005 16.7831 16.2921 16.8072 16.2921C16.8125 16.2921 16.8178 16.2921 16.8241 16.2932L19.3813 16.699C19.4117 16.7043 19.437 16.7211 19.4527 16.7474C19.5578 16.9292 19.6283 17.1279 19.664 17.3361C19.6808 17.4286 19.6882 17.5264 19.6882 17.6284C19.6882 18.6009 18.8967 19.3926 17.9235 19.3936Z" fill="black"/>
<path d="M24.7321 14.1624C24.5251 11.822 23.453 9.65099 21.7135 8.04978C19.9635 6.4391 17.6933 5.55176 15.3189 5.55176C10.1079 5.55176 5.86795 9.79292 5.86795 15.0055C5.86795 16.755 6.35038 18.4592 7.26373 19.9438L5.22681 24.4541L11.7485 23.7591C12.8826 24.2238 14.0829 24.4593 15.3179 24.4593C15.6427 24.4593 15.9759 24.4425 16.3101 24.4078C16.6044 24.3763 16.9018 24.33 17.194 24.2711C21.558 23.389 24.7437 19.5148 24.7689 15.056V15.0055C24.7689 14.7217 24.7563 14.4378 24.7311 14.1634L24.7321 14.1624ZM11.9998 21.7794L8.39152 22.1642L9.46884 19.7766L9.25337 19.4875C9.2376 19.4664 9.22184 19.4454 9.20397 19.4212C8.26854 18.1291 7.77454 16.6026 7.77454 15.0066C7.77454 10.8453 11.1589 7.45997 15.3189 7.45997C19.2162 7.45997 22.5197 10.5015 22.8381 14.3842C22.8549 14.5924 22.8644 14.8016 22.8644 15.0076C22.8644 15.0665 22.8634 15.1243 22.8623 15.1864C22.7824 18.6674 20.3514 21.6238 16.9502 22.3766C16.6906 22.4344 16.4246 22.4786 16.1598 22.507C15.8844 22.5385 15.6017 22.5543 15.3211 22.5543C14.3215 22.5543 13.3503 22.3608 12.4328 21.9781C12.3308 21.9371 12.231 21.893 12.1374 21.8478L12.0008 21.7815L11.9998 21.7794Z" fill="black"/>
</g>
<defs>
<clipPath id="clip0_3487_104">
<rect width="30" height="30.0088" fill="white"/>
</clipPath>
</defs>
</svg>
