<svg width="146" height="46" viewBox="0 0 146 46" fill="none" xmlns="http://www.w3.org/2000/svg">
<path d="M2.11071 25.2879L2.12074 25.2768L2.13008 25.2651L3.27963 23.8262L3.54094 23.4991L3.26486 23.1844L1.45274 21.1186C0.17873 19.1977 0.700894 17.1663 1.26096 16.433L1.26242 16.431C1.56751 16.0275 1.94896 15.5067 2.37717 14.9219C3.47396 13.4242 4.87748 11.5077 6.09009 10.072L6.0988 10.0617L6.10694 10.0509C6.13455 10.0144 6.16936 9.97457 6.21993 9.91726L6.22471 9.91184C6.26886 9.8618 6.32663 9.79633 6.37874 9.72766C6.52515 9.53849 7.26595 8.53814 7.99292 7.54746C8.71496 6.5635 9.45869 5.54146 9.58163 5.3433L9.58179 5.34339L9.58858 5.33175C10.0638 4.51747 10.3715 3.71626 10.5273 3.02046C10.55 2.91947 10.5697 2.81913 10.5864 2.71996C10.8844 3.0662 11.2615 3.51758 11.7235 4.09043L11.7252 4.09244C12.1255 4.58365 12.1663 5.09209 12.0443 5.59253C11.9168 6.11602 11.6133 6.60955 11.3464 6.99338L11.3373 7.00643L11.3291 7.02002C11.3311 7.01672 11.3266 7.02292 11.3137 7.04086C11.2974 7.06346 11.2677 7.10469 11.2206 7.16906C11.1468 7.26995 11.046 7.40649 10.9286 7.56511C10.8503 7.6709 10.7648 7.78642 10.6752 7.9073C10.4969 8.14791 10.3029 8.40977 10.1195 8.65843C9.84467 9.03093 9.58912 9.37974 9.4431 9.58678C9.40658 9.63857 9.37469 9.68461 9.35031 9.72134C9.33835 9.73935 9.32576 9.75877 9.31452 9.77736C9.31443 9.77751 9.31427 9.77777 9.31404 9.77814C9.31106 9.78296 9.29689 9.80587 9.28178 9.83768L6.79596 12.9389L6.7959 12.9389L6.79061 12.9457L3.45145 17.2625L3.41899 17.3044L3.39605 17.3523C2.91708 18.3517 3.09062 19.1945 3.47947 19.8444C3.78101 20.3483 4.22592 20.749 4.50766 21.0027C4.5633 21.0528 4.61258 21.0972 4.65313 21.1355L5.05744 21.5174L5.39433 21.0749L8.4311 17.0856C8.43133 17.0854 8.43155 17.0851 8.43177 17.0848C9.30846 15.9434 11.3567 13.2887 12.6929 11.6387L12.6929 11.6387L12.696 11.6348C13.3657 10.7907 13.9234 9.9661 14.3029 9.27362C14.4315 9.03892 14.5425 8.81433 14.6308 8.60544C15.3644 9.50238 15.6011 10.2821 15.6263 10.8933C15.6579 11.6589 15.3607 12.2385 15.1376 12.5396L13.7192 14.3253L13.7192 14.3253L13.717 14.3282C10.8697 17.9672 5.17901 25.2131 3.67615 27.0833C2.8101 28.161 2.44776 29.1638 2.35936 29.9731C2.24364 29.8449 2.12815 29.7101 2.01638 29.5709C1.54656 28.9859 1.19597 28.3885 1.10942 27.9055C1.02512 27.4352 1.14813 26.913 1.37601 26.4176C1.60174 25.9268 1.90698 25.5138 2.11071 25.2879ZM10.0017 9.63969C10.006 9.64244 10.0102 9.64522 10.0143 9.64803C9.93615 9.75596 9.87036 9.84794 9.82188 9.91746L9.47344 9.6325C9.49186 9.6213 9.51731 9.60752 9.54823 9.59526L9.54953 9.59474C9.57586 9.5842 9.78517 9.50037 10.0017 9.63969ZM9.38908 9.69832C9.38373 9.704 9.38473 9.70249 9.3906 9.69668C9.39003 9.6973 9.38952 9.69785 9.38908 9.69832Z" fill="white" stroke="#EBEBEB"/>
<path d="M2.11071 25.2879L2.12074 25.2768L2.13008 25.2651L3.27963 23.8262L3.54094 23.4991L3.26486 23.1844L1.45274 21.1186C0.17873 19.1977 0.700894 17.1663 1.26096 16.433L1.26242 16.431C1.56751 16.0275 1.94896 15.5067 2.37717 14.9219C3.47396 13.4242 4.87748 11.5077 6.09009 10.072L6.0988 10.0617L6.10694 10.0509C6.13455 10.0144 6.16936 9.97457 6.21993 9.91726L6.22471 9.91184C6.26886 9.8618 6.32663 9.79633 6.37874 9.72766C6.52515 9.53849 7.26595 8.53814 7.99292 7.54746C8.71496 6.5635 9.45869 5.54146 9.58163 5.3433L9.58179 5.34339L9.58858 5.33175C10.0638 4.51747 10.3715 3.71626 10.5273 3.02046C10.55 2.91947 10.5697 2.81913 10.5864 2.71996C10.8844 3.0662 11.2615 3.51758 11.7235 4.09043L11.7252 4.09244C12.1255 4.58365 12.1663 5.09209 12.0443 5.59253C11.9168 6.11602 11.6133 6.60955 11.3464 6.99338L11.3373 7.00643L11.3291 7.02002C11.3311 7.01672 11.3266 7.02292 11.3137 7.04086C11.2974 7.06346 11.2677 7.10469 11.2206 7.16906C11.1468 7.26995 11.046 7.40649 10.9286 7.56511C10.8503 7.6709 10.7648 7.78642 10.6752 7.9073C10.4969 8.14791 10.3029 8.40977 10.1195 8.65843C9.84467 9.03093 9.58912 9.37974 9.4431 9.58678C9.40658 9.63857 9.37469 9.68461 9.35031 9.72134C9.33835 9.73935 9.32576 9.75877 9.31452 9.77736C9.31443 9.77751 9.31427 9.77777 9.31404 9.77814C9.31106 9.78296 9.29689 9.80587 9.28178 9.83768L6.79596 12.9389L6.7959 12.9389L6.79061 12.9457L3.45145 17.2625L3.41899 17.3044L3.39605 17.3523C2.91708 18.3517 3.09062 19.1945 3.47947 19.8444C3.78101 20.3483 4.22592 20.749 4.50766 21.0027C4.5633 21.0528 4.61258 21.0972 4.65313 21.1355L5.05744 21.5174L5.39433 21.0749L8.4311 17.0856C8.43133 17.0854 8.43155 17.0851 8.43177 17.0848C9.30846 15.9434 11.3567 13.2887 12.6929 11.6387L12.6929 11.6387L12.696 11.6348C13.3657 10.7907 13.9234 9.9661 14.3029 9.27362C14.4315 9.03892 14.5425 8.81433 14.6308 8.60544C15.3644 9.50238 15.6011 10.2821 15.6263 10.8933C15.6579 11.6589 15.3607 12.2385 15.1376 12.5396L13.7192 14.3253L13.7192 14.3253L13.717 14.3282C10.8697 17.9672 5.17901 25.2131 3.67615 27.0833C2.8101 28.161 2.44776 29.1638 2.35936 29.9731C2.24364 29.8449 2.12815 29.7101 2.01638 29.5709C1.54656 28.9859 1.19597 28.3885 1.10942 27.9055C1.02512 27.4352 1.14813 26.913 1.37601 26.4176C1.60174 25.9268 1.90698 25.5138 2.11071 25.2879ZM10.0017 9.63969C10.006 9.64244 10.0102 9.64522 10.0143 9.64803C9.93615 9.75596 9.87036 9.84794 9.82188 9.91746L9.47344 9.6325C9.49186 9.6213 9.51731 9.60752 9.54823 9.59526L9.54953 9.59474C9.57586 9.5842 9.78517 9.50037 10.0017 9.63969ZM9.38908 9.69832C9.38373 9.704 9.38473 9.70249 9.3906 9.69668C9.39003 9.6973 9.38952 9.69785 9.38908 9.69832Z" fill="white" stroke="#EBEBEB"/>
<path d="M22.1273 20.0214L22.1344 20.0318L22.1421 20.0419C22.5133 20.5329 23.0842 22.0392 21.6354 23.793L21.6327 23.7962C20.0431 25.7536 14.0358 33.473 11.238 37.1184C10.8512 37.536 10.339 38.2351 10.0022 39.045C9.85461 39.3997 9.73487 39.7906 9.67974 40.1971C9.48807 39.9405 9.30269 39.6541 9.1419 39.3454C8.6989 38.4948 8.46552 37.5217 8.73565 36.5431L8.74033 36.5261L8.74041 36.5257C8.74285 36.5198 8.74803 36.5079 8.75747 36.4892C8.77841 36.4476 8.81243 36.3882 8.86273 36.3119C8.96304 36.1598 9.11797 35.9556 9.33657 35.7133L9.3468 35.702L9.35631 35.69L16.6915 26.4864L16.6916 26.4864L16.6968 26.4797L19.0768 23.3862C19.077 23.3859 19.0772 23.3857 19.0774 23.3854C19.2755 23.1295 19.5383 22.5669 19.6161 21.9101C19.6953 21.2429 19.5889 20.4216 18.9725 19.7099L18.3631 18.7638L17.9771 18.1646L17.5451 18.7314L11.6087 26.5194L7.36928 31.864L7.36206 31.8732L7.35526 31.8826C7.06163 32.2904 6.65394 32.9684 6.38164 33.7093C6.28611 33.9693 6.20158 34.2522 6.14784 34.5437C6.04737 34.4141 5.94679 34.2763 5.84888 34.1313C5.42412 33.5025 5.07344 32.7755 4.97463 32.0455C4.97241 31.9688 5.00074 31.7118 5.17696 31.2929C5.35458 30.8706 5.66989 30.3148 6.2031 29.6698C7.33174 28.3045 12.1273 22.1612 14.3697 19.2587L14.3698 19.2588L14.3753 19.2513L16.7524 16.0533C17.0274 15.7033 17.3908 15.1153 17.6602 14.4509C17.7455 14.2405 17.8243 14.0153 17.8878 13.7819L22.1273 20.0214Z" fill="white" stroke="#EBEBEB"/>
<path d="M41.0779 3.35352H42.5412V7.79469C42.5412 9.0486 42.9379 10.0349 43.7175 10.7438L43.7174 10.7439L43.7251 10.7506C44.532 11.4549 45.6524 11.7698 47.0099 11.7698C48.48 11.7698 49.9441 11.4547 51.4258 10.8046L51.7249 10.6734V10.3467V3.35352H53.2156V18.263H51.7249V12.6273V11.9049L51.0488 12.1593C49.5059 12.7398 48.0605 13.0232 46.7635 13.0232C44.8964 13.0232 43.4971 12.5803 42.5228 11.7359C41.5848 10.8996 41.0779 9.69104 41.0779 8.06618V3.35352ZM67.5086 15.9967L68.2365 16.8487C67.7792 17.3196 67.2117 17.6865 66.5594 17.9453C65.8041 18.245 64.9645 18.3988 64.0067 18.3988C62.7937 18.3988 61.7268 18.1435 60.8221 17.6709C59.9091 17.1669 59.1887 16.4965 58.6935 15.6377C58.2196 14.7957 57.9653 13.8232 57.9653 12.7087C57.9653 11.6248 58.2181 10.6504 58.695 9.77712C59.2014 8.89967 59.8494 8.23697 60.691 7.77046C61.5433 7.29804 62.5266 7.04582 63.5962 7.04582C64.6916 7.04582 65.6392 7.29712 66.4825 7.8138L66.4891 7.81782L66.4958 7.82163C67.3153 8.28967 67.9624 8.95393 68.44 9.82659L68.4399 9.82665L68.4454 9.83613C68.9413 10.697 69.1724 11.6663 69.1724 12.8173C69.1724 12.887 69.1659 12.9698 69.1553 13.0775H59.956H59.3788L59.4611 13.6488C59.6166 14.729 60.1217 15.5703 60.9209 16.241L60.9278 16.2468L60.935 16.2524C61.8024 16.9285 62.846 17.254 64.0888 17.254C65.4615 17.254 66.5997 16.8388 67.5086 15.9967ZM73.4142 9.78729L73.4142 9.78731L73.4174 9.78184C73.9167 8.91506 74.6133 8.24761 75.4903 7.77481C76.3986 7.29982 77.4395 7.04582 78.595 7.04582C79.6221 7.04582 80.525 7.24907 81.3179 7.6669L81.3178 7.66703L81.3288 7.67249C82.009 8.00981 82.556 8.48967 82.9602 9.09932L81.8678 9.80597C81.4977 9.33422 81.0466 8.96778 80.5507 8.70893C79.9496 8.39511 79.2661 8.24492 78.5403 8.24492C77.7009 8.24492 76.9332 8.42398 76.2496 8.79385L76.2495 8.79376L76.241 8.79862C75.5852 9.17031 75.0561 9.69778 74.6572 10.3978L74.6572 10.3978L74.6535 10.4044C74.2779 11.0875 74.099 11.8791 74.099 12.7359C74.099 13.6204 74.2781 14.408 74.6491 15.1134L74.6491 15.1135L74.6535 15.1216C75.0284 15.8034 75.5634 16.3338 76.2496 16.705C76.9332 17.0749 77.7009 17.254 78.5403 17.254C79.2661 17.254 79.9496 17.1038 80.5507 16.79C81.0484 16.5302 81.501 16.162 81.8719 15.6877L82.9291 16.3509C82.5255 16.9581 81.978 17.4421 81.2932 17.8035C80.5264 18.1954 79.6224 18.3988 78.595 18.3988C77.4048 18.3988 76.3972 18.1689 75.4998 17.6749C74.615 17.1729 73.9154 16.5013 73.4158 15.6599C72.9165 14.7921 72.663 13.8214 72.663 12.7087C72.663 11.5935 72.9176 10.6247 73.4142 9.78729ZM89.3588 8.79922V8.29922H88.8588H85.007V7.15442H95.174V8.29922H91.2948H90.7948V8.79922V18.263H89.3588V8.79922ZM98.6647 18.2656V7.15442H100.101V10.6454V11.137L100.592 11.1453L103.821 11.1996C105.301 11.2258 106.368 11.5409 107.062 12.1376C107.756 12.7335 108.12 13.5626 108.12 14.6906C108.12 15.8594 107.711 16.7402 106.94 17.3673C106.156 17.9789 105.023 18.3161 103.483 18.2902V18.2902L103.477 18.2902L98.6647 18.2656ZM59.434 11.658L59.349 12.2313H59.9286H67.2638H67.846L67.7581 11.6558C67.6038 10.6463 67.1376 9.81106 66.427 9.16572C65.6645 8.44307 64.7152 8.10917 63.5962 8.10917C62.4737 8.10917 61.5327 8.44463 60.7493 9.12842L60.7493 9.12836L60.7425 9.1345C60.0204 9.78846 59.5864 10.6298 59.434 11.658ZM100.101 16.8626V17.3575L100.596 17.3625L103.273 17.3896C104.294 17.4179 105.114 17.2184 105.707 16.734L105.39 16.3467L105.707 16.7339C106.308 16.2425 106.602 15.5457 106.602 14.6635C106.602 13.8126 106.31 13.1336 105.724 12.6935C105.151 12.2359 104.297 12.0736 103.297 12.046L103.293 12.0459L100.611 11.9916L100.101 11.9813V12.4915V16.8626Z" fill="white" stroke="#EBEBEB"/>
<path d="M138.293 24.4391L138.302 24.4475L138.31 24.4554C138.507 24.6326 138.61 24.8508 138.61 25.1429C138.61 25.4409 138.502 25.6941 138.293 25.9011C138.097 26.0957 137.873 26.1904 137.523 26.1904C137.187 26.1904 136.913 26.0874 136.726 25.9011C136.527 25.7036 136.436 25.4819 136.436 25.1701C136.436 24.8582 136.527 24.6365 136.726 24.4391C136.931 24.2353 137.187 24.1226 137.523 24.1226C137.827 24.1226 138.084 24.232 138.293 24.4391Z" fill="white" stroke="#EBEBEB"/>
<path d="M42.4119 26.6247H41.9119V27.1247V40.2808H40.3938V25.3984H53.2431V40.2808H51.7524V27.1247V26.6247H51.2524H42.4119Z" fill="white" stroke="#EBEBEB"/>
<mask id="path-7-inside-1_3817_20" fill="white">
<path d="M85.3541 37.929L85.2461 37.8486L85.3541 37.929Z"/>
</mask>
<path d="M85.3541 37.929L85.2461 37.8486L85.3541 37.929Z" fill="white"/>
<path d="M85.951 37.1267L85.843 37.0463L84.6492 38.651L84.7572 38.7313L85.951 37.1267ZM84.6492 38.651L84.7572 38.7313L85.951 37.1267L85.843 37.0463L84.6492 38.651Z" fill="#EBEBEB" mask="url(#path-7-inside-1_3817_20)"/>
<mask id="path-9-inside-2_3817_20" fill="white">
<path d="M83.1106 40.128L83.0293 39.9937L83.1106 40.128Z"/>
</mask>
<path d="M83.1106 40.128L83.0293 39.9937L83.1106 40.128Z" fill="white"/>
<path d="M83.9662 39.6105L83.8849 39.4761L82.1737 40.5112L82.255 40.6456L83.9662 39.6105ZM82.1737 40.5112L82.255 40.6456L83.9662 39.6105L83.8849 39.4761L82.1737 40.5112Z" fill="#EBEBEB" mask="url(#path-9-inside-2_3817_20)"/>
<mask id="path-11-inside-3_3817_20" fill="white">
<path d="M76.6512 29.4588L76.5972 29.3784L76.6512 29.4588Z"/>
</mask>
<path d="M76.6512 29.4588L76.5972 29.3784L76.6512 29.4588Z" fill="white"/>
<path d="M77.4811 28.9009L77.4271 28.8206L75.7672 29.9362L75.8212 30.0166L77.4811 28.9009ZM75.7672 29.9362L75.8212 30.0166L77.4811 28.9009L77.4271 28.8206L75.7672 29.9362Z" fill="#EBEBEB" mask="url(#path-11-inside-3_3817_20)"/>
<path d="M123.091 31.8323L123.091 31.8323L123.094 31.8268C123.594 30.96 124.29 30.2926 125.167 29.8198C126.076 29.3448 127.117 29.0908 128.272 29.0908C129.301 29.0908 130.195 29.2947 130.951 29.73L130.965 29.7377L130.979 29.7446C131.658 30.0817 132.205 30.5611 132.609 31.17L131.546 31.8523C131.176 31.3799 130.724 31.013 130.228 30.7539C129.627 30.4401 128.943 30.2899 128.217 30.2899C127.378 30.2899 126.61 30.469 125.927 30.8388L125.927 30.8388L125.918 30.8436C125.262 31.2153 124.733 31.7428 124.334 32.4428L124.334 32.4428L124.331 32.4494C123.955 33.1325 123.776 33.9241 123.776 34.7809C123.776 35.6654 123.955 36.453 124.326 37.1584L124.326 37.1585L124.331 37.1666C124.705 37.8484 125.24 38.3788 125.927 38.75C126.61 39.1199 127.378 39.299 128.217 39.299C128.943 39.299 129.627 39.1488 130.228 38.835C130.725 38.5752 131.178 38.207 131.549 37.7327L132.606 38.3959C132.203 39.0031 131.655 39.4871 130.97 39.8484C130.204 40.2404 129.299 40.4438 128.272 40.4438C127.082 40.4438 126.074 40.2139 125.177 39.72C124.292 39.2179 123.592 38.5464 123.093 37.705C122.594 36.8372 122.34 35.8665 122.34 34.7537C122.34 33.6385 122.595 32.6697 123.091 31.8323Z" fill="white" stroke="#EBEBEB"/>
<path d="M118.062 31.8173L118.062 31.8173L118.068 31.8268C118.562 32.6855 118.795 33.6552 118.822 34.8672C118.822 34.9359 118.815 35.0173 118.805 35.1225H109.633H109.056L109.138 35.6938C109.294 36.774 109.799 37.6153 110.598 38.286L110.605 38.2918L110.612 38.2974C111.479 38.9735 112.523 39.299 113.766 39.299C115.139 39.299 116.277 38.8838 117.186 38.0417L117.914 38.8937C117.456 39.3646 116.889 39.7315 116.236 39.9903C115.481 40.29 114.642 40.4438 113.684 40.4438C112.471 40.4438 111.404 40.1885 110.499 39.7159C109.586 39.2119 108.866 38.5414 108.371 37.6827C107.897 36.8407 107.642 35.8681 107.642 34.7537C107.642 33.6698 107.895 32.6954 108.372 31.8221C108.878 30.9447 109.527 30.282 110.368 29.8155C111.22 29.343 112.204 29.0908 113.273 29.0908C114.351 29.0908 115.298 29.3193 116.108 29.8067L116.108 29.8068L116.118 29.8123C116.938 30.2804 117.585 30.9446 118.062 31.8173ZM109.111 33.703L109.026 34.2763H109.606H116.941H117.523L117.435 33.7008C117.281 32.6913 116.815 31.856 116.104 31.2107C115.342 30.4881 114.392 30.1542 113.273 30.1542C112.151 30.1542 111.21 30.4896 110.426 31.1734L110.426 31.1734L110.42 31.1795C109.697 31.8335 109.263 32.6748 109.111 33.703Z" fill="white" stroke="#EBEBEB"/>
<path d="M136.791 40.2807V29.1992H138.227V40.2807H136.791Z" fill="white" stroke="#EBEBEB"/>
<path d="M69.9486 31.7682L69.9485 31.7682L69.9542 31.7778C70.4501 32.6141 70.7034 33.6063 70.6781 34.6875L70.6779 34.6875V34.6992C70.6779 35.8242 70.4465 36.8203 69.951 37.6804L69.9509 37.6804L69.9486 37.6846C69.4742 38.5267 68.8022 39.1934 67.9522 39.6646L67.9521 39.6645L67.9426 39.6701C67.103 40.16 66.1265 40.3893 65.0197 40.3893C64.2195 40.3893 63.4942 40.2163 62.8128 39.9159L62.8091 39.9143C62.2572 39.6763 61.7907 39.3153 61.3584 38.8612L60.4962 37.9558V39.206V44.5703H59.0603V29.1449H60.4141V30.2739V31.6354L61.2953 30.5975C61.6837 30.14 62.1685 29.7793 62.727 29.5384L62.727 29.5386L62.7381 29.5335C63.4307 29.2145 64.1791 29.0635 65.0197 29.0635C66.1177 29.0635 67.1008 29.3162 67.9522 29.7881C68.8022 30.2593 69.4742 30.9261 69.9486 31.7682ZM62.632 38.7143L62.6319 38.7143L62.6382 38.7179C63.2968 39.0912 64.0405 39.2716 64.8554 39.2716C65.6687 39.2716 66.4109 39.092 67.0684 38.7203C67.76 38.345 68.2892 37.7853 68.6583 37.1154C69.064 36.4018 69.242 35.5807 69.242 34.7264C69.242 33.8715 69.0638 33.0741 68.654 32.3842C68.2609 31.6956 67.7617 31.1629 67.0684 30.7867C66.4109 30.4151 65.6686 30.2354 64.8554 30.2354C64.0636 30.2354 63.3179 30.4178 62.632 30.8199L62.6319 30.8198L62.6232 30.8252C61.9815 31.2192 61.4578 31.7383 61.0594 32.4071L61.0549 32.4145L61.0508 32.4221C60.6752 33.1052 60.4962 33.8967 60.4962 34.7535C60.4962 35.6124 60.676 36.3997 61.0464 37.1039L61.0463 37.104L61.0508 37.1121C61.4261 37.7946 61.9584 38.3195 62.632 38.7143Z" fill="white" stroke="#EBEBEB"/>
<path d="M84.9221 31.8268L84.9221 31.8269L84.9253 31.8323C85.4224 32.6706 85.6765 33.6396 85.6765 34.7266C85.6765 35.8405 85.4224 36.8121 84.9221 37.6806L84.9221 37.6806L84.9197 37.6848C84.4495 38.5195 83.7534 39.19 82.8665 39.6931C82.0182 40.1629 81.009 40.4166 79.8813 40.4166C78.7454 40.4166 77.7393 40.1866 76.8708 39.6943C75.9855 39.1925 75.2855 38.5212 74.7855 37.6799C74.3126 36.8385 74.0588 35.8669 74.0588 34.7537C74.0588 33.6294 74.29 32.663 74.7826 31.8323L74.7827 31.8323L74.7858 31.8268C75.2857 30.9592 75.9832 30.2913 76.8613 29.8184C77.7415 29.3444 78.754 29.0908 79.8813 29.0908C81.0152 29.0908 81.9945 29.32 82.8645 29.8131L82.8644 29.8132L82.874 29.8184C83.7466 30.2883 84.4191 30.9537 84.9221 31.8268ZM83.6586 37.1123L83.6587 37.1123L83.663 37.1041C84.0265 36.4131 84.2421 35.6246 84.2132 34.7451C84.212 33.8916 84.033 33.1031 83.6586 32.4223L83.6587 32.4223L83.6549 32.4157C83.2614 31.725 82.7616 31.191 82.0669 30.814C81.4094 30.4424 80.6672 30.2628 79.854 30.2628C79.037 30.2628 78.2976 30.444 77.618 30.8117L77.618 30.8116L77.6094 30.8165C76.9536 31.1882 76.4245 31.7156 76.0256 32.4157L76.0256 32.4156L76.0219 32.4223C75.6463 33.1054 75.4674 33.8969 75.4674 34.7537C75.4674 35.6126 75.6471 36.3999 76.0175 37.1041L76.0237 37.1159L76.0305 37.1273C76.4289 37.796 76.9527 38.3152 77.5943 38.7092L77.606 38.7164L77.618 38.7229C78.2976 39.0906 79.037 39.2718 79.854 39.2718C80.6672 39.2718 81.4094 39.0922 82.0669 38.7205C82.7596 38.3446 83.2894 37.7837 83.6586 37.1123Z" fill="white" stroke="#EBEBEB"/>
<path d="M102.683 30.7344L102.683 30.7343C101.563 29.771 99.9582 29.2213 97.8329 29.0895L97.3638 29.0604V28.5905V24.4751H95.9826V28.5905V29.0608L95.5131 29.0895C93.3622 29.2212 91.7814 29.7705 90.6584 30.7111C89.5332 31.6576 88.9758 32.9716 88.9758 34.7262C88.9758 36.4754 89.5574 37.8236 90.6653 38.8016C91.7858 39.7637 93.3897 40.3127 95.5135 40.4444L95.9826 40.4735V40.9434V44.6244H97.3638V40.9434V40.4735L97.8329 40.4444C99.9521 40.313 101.559 39.7387 102.683 38.773L102.683 30.7344ZM102.683 30.7344L102.688 30.7379M102.683 30.7344L102.688 30.7379M102.688 30.7379C103.818 31.6886 104.398 33.0061 104.398 34.7262C104.398 36.4475 103.817 37.7946 102.683 38.7729L102.688 30.7379ZM95.4472 39.2702L95.9826 39.3082V38.7715V30.7353V30.1899L95.4392 30.2372C93.8292 30.3773 92.5884 30.775 91.7101 31.5218L91.709 31.5227C90.7856 32.3123 90.357 33.3846 90.357 34.6991C90.357 36.0685 90.8131 37.1636 91.7024 37.9512C92.5811 38.7294 93.8528 39.1573 95.4472 39.2702ZM97.9079 39.2695C99.495 39.129 100.758 38.7026 101.633 37.9606C102.569 37.19 102.989 36.0804 102.989 34.6991C102.989 33.3637 102.564 32.2852 101.633 31.519C100.757 30.7762 99.4922 30.3494 97.8991 30.2365L97.3638 30.1986V30.7353V38.7715V39.3177L97.9079 39.2695Z" fill="white" stroke="#EBEBEB"/>
<path d="M144.624 24.4471L144.616 24.4387C144.423 24.247 144.173 24.1494 143.846 24.1494C143.532 24.1494 143.251 24.2651 143.048 24.4659M144.624 24.4471L143.048 24.4659M144.624 24.4471L144.633 24.4551C144.83 24.6322 144.933 24.8505 144.933 25.1426C144.933 25.4406 144.824 25.6938 144.616 25.9007C144.423 26.0924 144.173 26.1901 143.846 26.1901C143.486 26.1901 143.239 26.0897 143.048 25.9007C142.849 25.7033 142.758 25.4816 142.758 25.1697C142.758 24.8899 142.846 24.6666 143.048 24.4659M144.624 24.4471L142.696 24.1109L143.048 24.4659M144.599 19.8062L144.615 19.8238L144.633 19.8397C144.83 20.0168 144.933 20.2351 144.933 20.5272C144.933 20.8252 144.824 21.0784 144.616 21.2853C144.42 21.48 144.196 21.5747 143.846 21.5747C143.509 21.5747 143.236 21.4716 143.048 21.2853C142.849 21.0879 142.758 20.8662 142.758 20.5543C142.758 20.2425 142.849 20.0208 143.048 19.8234C143.254 19.6195 143.51 19.5068 143.846 19.5068C144.187 19.5068 144.431 19.622 144.599 19.8062ZM143.141 40.3077V29.2263H144.577V40.3077H143.141Z" fill="white" stroke="#EBEBEB"/>
<path d="M22.1273 20.0214L22.1344 20.0318L22.1421 20.0419C22.5133 20.5329 23.0842 22.0392 21.6354 23.793L21.6327 23.7962C20.0431 25.7536 14.0358 33.473 11.238 37.1184C10.8512 37.536 10.339 38.2351 10.0022 39.045C9.85461 39.3997 9.73487 39.7906 9.67974 40.1971C9.48807 39.9405 9.30269 39.6541 9.1419 39.3454C8.6989 38.4948 8.46552 37.5217 8.73565 36.5431L8.74033 36.5261L8.74041 36.5257C8.74285 36.5198 8.74803 36.5079 8.75747 36.4892C8.77841 36.4476 8.81243 36.3882 8.86273 36.3119C8.96304 36.1598 9.11797 35.9556 9.33657 35.7133L9.3468 35.702L9.35631 35.69L16.6915 26.4864L16.6916 26.4864L16.6968 26.4797L19.0768 23.3862C19.077 23.3859 19.0772 23.3857 19.0774 23.3854C19.2755 23.1295 19.5383 22.5669 19.6161 21.9101C19.6953 21.2429 19.5889 20.4216 18.9725 19.7099L18.3631 18.7638L17.9771 18.1646L17.5451 18.7314L11.6087 26.5194L7.36928 31.864L7.36206 31.8732L7.35526 31.8826C7.06163 32.2904 6.65394 32.9684 6.38164 33.7093C6.28611 33.9693 6.20158 34.2522 6.14784 34.5437C6.04737 34.4141 5.94679 34.2763 5.84888 34.1313C5.42412 33.5025 5.07344 32.7755 4.97463 32.0455C4.97241 31.9688 5.00074 31.7118 5.17696 31.2929C5.35458 30.8706 5.66989 30.3148 6.2031 29.6698C7.33174 28.3045 12.1273 22.1612 14.3697 19.2587L14.3698 19.2588L14.3753 19.2513L16.7524 16.0533C17.0274 15.7033 17.3908 15.1153 17.6602 14.4509C17.7455 14.2405 17.8243 14.0153 17.8878 13.7819L22.1273 20.0214Z" fill="white" stroke="#EBEBEB"/>
<path opacity="0.45" d="M30.5876 0.572754V43.1972" stroke="#EBEBEB" stroke-miterlimit="10"/>
</svg>
